<svg xmlns="http://www.w3.org/2000/svg" viewBox="0 0 315 234"><defs><style>.cls-1{fill:#fff;}</style></defs><g id="Layer_2" data-name="Layer 2"><g id="Layer_4" data-name="Layer 4"><path class="cls-1" d="M277.49,234h-240A37.52,37.52,0,0,1,0,196.49v-159A37.52,37.52,0,0,1,37.51,0h240A37.52,37.52,0,0,1,315,37.51v159A37.52,37.52,0,0,1,277.49,234ZM162,9a81,81,0,1,0,81,81A81,81,0,0,0,162,9ZM270,225c-21.8-27-61.48-45-106.84-45s-85,18-106.83,45Zm-72-99H117c0,9.94,20.15,18,45,18,14.72,0,27.79-2.83,36-7.2Z"/></g></g></svg>