<svg xmlns="http://www.w3.org/2000/svg" viewBox="0 0 462.44 121.28"><defs><style>.cls-1,.cls-2{fill:#fff;}.cls-2{font-size:40px;font-family:IowanOldStyle-Bold, Iowan Old Style;font-weight:700;}</style></defs><g id="Layer_2" data-name="Layer 2"><g id="Layer_2-2" data-name="Layer 2"><path class="cls-1" d="M175.08,121.1V.31h9.34V53h41.35V.31C228.85,0,257.31-2.78,276,17.8,289.74,33,290.5,52.59,290.67,56.87a65.68,65.68,0,0,1-1,14.1,61,61,0,0,1-11.44,26.78A59.7,59.7,0,0,1,256.7,115.3a60.67,60.67,0,0,1-30.93,5.8V73.4h9.34L235,114.51C304,106.58,291.52,4.6,235.2,7.84V60.7H184.42v60.4Z"/><rect class="cls-1" x="7.19" y="28.46" width="152.17" height="3.02"/><text class="cls-2" transform="translate(17.15 73.25)">HOME</text><rect class="cls-1" x="297.59" y="28.46" width="158.66" height="3.02"/><text class="cls-2" transform="translate(300.12 73.25)">DECOR</text></g></g></svg>