<svg xmlns="http://www.w3.org/2000/svg" viewBox="0 0 462.44 121.28"><defs><style>.cls-1,.cls-2{fill:#fff}.cls-2{font-size:40px;font-family:IowanOldStyle-Bold,Iowan Old Style;font-weight:700}</style></defs><g id="Layer_2" data-name="Layer 2"><g id="Layer_2-2" data-name="Layer 2"><path class="cls-1" d="M175.08 121.1V.31h9.34V53h41.35V.31C228.85 0 257.31-2.78 276 17.8c13.74 15.2 14.5 34.79 14.67 39.07a65.68 65.68 0 01-1 14.1 61 61 0 01-11.44 26.78 59.7 59.7 0 01-21.53 17.55 60.67 60.67 0 01-30.93 5.8V73.4h9.34l-.11 41.11c69-7.93 56.52-109.91.2-106.67V60.7h-50.78v60.4zM7.19 28.46h152.17v3.02H7.19z"/><text class="cls-2" transform="translate(17.15 73.25)">HOME</text><path class="cls-1" d="M297.59 28.46h158.66v3.02H297.59z"/><text class="cls-2" transform="translate(300.12 73.25)">DECOR</text></g></g></svg>